<svg width="117" height="15" viewBox="0 0 117 15" fill="none" xmlns="http://www.w3.org/2000/svg">
<path d="M3.28 0.599999H6.28L9.58 8.8L8.32 8.72L14.7 0.599999H17.76L15 15H11.46L13.32 5.3L14.06 5.84L9.4 11.78H7.54L4.98 5.44L5.88 5.58L4.08 15H0.54L3.28 0.599999ZM29.6009 0.599999H33.1409L30.3409 15H26.8009L29.6009 0.599999ZM21.5409 15H18.0009L20.8009 0.599999H24.3409L21.5409 15ZM29.0209 9.32H21.4209L22.0209 6.24H29.6209L29.0209 9.32ZM32.5516 15L35.9316 5.52C36.3049 4.48 36.7516 3.62667 37.2716 2.96C37.8049 2.29333 38.3982 1.78 39.0516 1.42C39.7049 1.04667 40.4316 0.793333 41.2316 0.66C42.0316 0.513333 42.8916 0.439999 43.8116 0.439999C44.4916 0.439999 45.1249 0.486666 45.7116 0.58C46.3116 0.659999 46.8782 0.773333 47.4116 0.919999L47.5316 1.16C47.3716 1.53333 47.2249 1.99333 47.0916 2.54C46.9716 3.07333 46.8716 3.54 46.7916 3.94L44.6316 15H41.0716L43.1116 4.6C43.1916 4.22667 43.2849 3.88 43.3916 3.56C43.4982 3.24 43.5982 2.98 43.6916 2.78L43.8116 3.6C43.6649 3.53333 43.4782 3.48667 43.2516 3.46C43.0382 3.42 42.8516 3.4 42.6916 3.4C42.0782 3.4 41.5649 3.48667 41.1516 3.66C40.7382 3.83333 40.4049 4.08667 40.1516 4.42C39.8982 4.75333 39.6782 5.17333 39.4916 5.68L36.1716 15H32.5516ZM36.4116 11.32L37.2516 8.48H43.1916L42.6516 11.32H36.4116ZM49.2889 0.599999H61.2689L60.6889 3.68H56.4889L54.3289 15H50.7889L52.9289 3.68H48.7089L49.2889 0.599999ZM60.3447 15L63.1447 0.599999H66.6847L64.4847 11.92H69.9647L69.3847 15H60.3447ZM71.0867 15L74.4667 5.52C74.8401 4.48 75.2867 3.62667 75.8067 2.96C76.3401 2.29333 76.9334 1.78 77.5867 1.42C78.2401 1.04667 78.9667 0.793333 79.7667 0.66C80.5667 0.513333 81.4267 0.439999 82.3467 0.439999C83.0267 0.439999 83.6601 0.486666 84.2467 0.58C84.8467 0.659999 85.4134 0.773333 85.9467 0.919999L86.0667 1.16C85.9067 1.53333 85.7601 1.99333 85.6267 2.54C85.5067 3.07333 85.4067 3.54 85.3267 3.94L83.1667 15H79.6067L81.6467 4.6C81.7267 4.22667 81.8201 3.88 81.9267 3.56C82.0334 3.24 82.1334 2.98 82.2267 2.78L82.3467 3.6C82.2001 3.53333 82.0134 3.48667 81.7867 3.46C81.5734 3.42 81.3867 3.4 81.2267 3.4C80.6134 3.4 80.1001 3.48667 79.6867 3.66C79.2734 3.83333 78.9401 4.08667 78.6867 4.42C78.4334 4.75333 78.2134 5.17333 78.0267 5.68L74.7067 15H71.0867ZM74.9467 11.32L75.7867 8.48H81.7267L81.1867 11.32H74.9467ZM95.1041 15L97.8641 0.599999H101.404L98.6641 15H95.1041ZM86.2041 15L88.9441 0.599999H91.7641L97.5441 8.2L96.7441 12.6L90.7441 4.7L91.6841 4.8L89.7441 15H86.2041ZM106.913 0.599999H109.433C111.513 0.599999 113.127 1.06667 114.273 2C115.433 2.92 116.013 4.32 116.013 6.2C116.013 7.04 115.9 7.88 115.673 8.72C115.46 9.54667 115.12 10.34 114.653 11.1C114.2 11.86 113.627 12.5333 112.933 13.12C112.253 13.7067 111.447 14.1667 110.513 14.5C109.593 14.8333 108.553 15 107.393 15H104.113L104.713 11.92H107.493C108.133 11.92 108.707 11.82 109.213 11.62C109.733 11.4067 110.187 11.12 110.573 10.76C110.973 10.4 111.307 9.98667 111.573 9.52C111.853 9.04 112.06 8.53333 112.193 8C112.327 7.46667 112.393 6.92667 112.393 6.38C112.393 5.44667 112.14 4.76667 111.633 4.34C111.127 3.9 110.3 3.68 109.153 3.68H106.313L106.913 0.599999ZM101.653 15L104.453 0.599999H107.993L105.193 15H101.653Z" fill="url(#paint0_linear_1_9)"/>
<defs>
<linearGradient id="paint0_linear_1_9" x1="51.2486" y1="2.35185" x2="54.1901" y2="23.5827" gradientUnits="userSpaceOnUse">
<stop stop-color="#28536B"/>
<stop offset="0.231914" stop-color="#28536B" stop-opacity="0.869792"/>
<stop offset="0.525588" stop-color="#42667C" stop-opacity="0.9"/>
<stop offset="0.731594" stop-color="#5A798D" stop-opacity="0.873372"/>
<stop offset="0.99647" stop-color="#8AA1B1" stop-opacity="0.4"/>
<stop offset="1" stop-color="#728D9F" stop-opacity="0.83923"/>
</linearGradient>
</defs>
</svg>
