<svg width="116" height="15" viewBox="0 0 116 15" fill="none" xmlns="http://www.w3.org/2000/svg">
<path d="M3.13547 0.599999H6.13547L9.43547 8.8L8.17547 8.72L14.5555 0.599999H17.6155L14.8555 15H11.3155L13.1755 5.3L13.9155 5.84L9.25547 11.78H7.39547L4.83547 5.44L5.73547 5.58L3.93547 15H0.395469L3.13547 0.599999ZM29.4564 0.599999H32.9964L30.1964 15H26.6564L29.4564 0.599999ZM21.3964 15H17.8564L20.6564 0.599999H24.1964L21.3964 15ZM28.8764 9.32H21.2764L21.8764 6.24H29.4764L28.8764 9.32ZM32.407 15L35.787 5.52C36.1604 4.48 36.607 3.62667 37.127 2.96C37.6604 2.29333 38.2537 1.78 38.907 1.42C39.5604 1.04667 40.287 0.793333 41.087 0.66C41.887 0.513333 42.747 0.439999 43.667 0.439999C44.347 0.439999 44.9804 0.486666 45.567 0.58C46.167 0.659999 46.7337 0.773333 47.267 0.919999L47.387 1.16C47.227 1.53333 47.0804 1.99333 46.947 2.54C46.827 3.07333 46.727 3.54 46.647 3.94L44.487 15H40.927L42.967 4.6C43.047 4.22667 43.1404 3.88 43.247 3.56C43.3537 3.24 43.4537 2.98 43.547 2.78L43.667 3.6C43.5204 3.53333 43.3337 3.48667 43.107 3.46C42.8937 3.42 42.707 3.4 42.547 3.4C41.9337 3.4 41.4204 3.48667 41.007 3.66C40.5937 3.83333 40.2604 4.08667 40.007 4.42C39.7537 4.75333 39.5337 5.17333 39.347 5.68L36.027 15H32.407ZM36.267 11.32L37.107 8.48H43.047L42.507 11.32H36.267ZM49.1444 0.599999H61.1244L60.5444 3.68H56.3444L54.1844 15H50.6444L52.7844 3.68H48.5644L49.1444 0.599999ZM60.2002 15L63.0002 0.599999H66.5402L64.3402 11.92H69.8202L69.2402 15H60.2002ZM70.9422 15L74.3222 5.52C74.6955 4.48 75.1422 3.62667 75.6622 2.96C76.1955 2.29333 76.7889 1.78 77.4422 1.42C78.0955 1.04667 78.8222 0.793333 79.6222 0.66C80.4222 0.513333 81.2822 0.439999 82.2022 0.439999C82.8822 0.439999 83.5155 0.486666 84.1022 0.58C84.7022 0.659999 85.2689 0.773333 85.8022 0.919999L85.9222 1.16C85.7622 1.53333 85.6155 1.99333 85.4822 2.54C85.3622 3.07333 85.2622 3.54 85.1822 3.94L83.0222 15H79.4622L81.5022 4.6C81.5822 4.22667 81.6755 3.88 81.7822 3.56C81.8889 3.24 81.9889 2.98 82.0822 2.78L82.2022 3.6C82.0555 3.53333 81.8689 3.48667 81.6422 3.46C81.4289 3.42 81.2422 3.4 81.0822 3.4C80.4689 3.4 79.9555 3.48667 79.5422 3.66C79.1289 3.83333 78.7955 4.08667 78.5422 4.42C78.2889 4.75333 78.0689 5.17333 77.8822 5.68L74.5622 15H70.9422ZM74.8022 11.32L75.6422 8.48H81.5822L81.0422 11.32H74.8022ZM94.9595 15L97.7195 0.599999H101.26L98.5195 15H94.9595ZM86.0595 15L88.7995 0.599999H91.6195L97.3995 8.2L96.5995 12.6L90.5995 4.7L91.5395 4.8L89.5995 15H86.0595ZM106.769 0.599999H109.289C111.369 0.599999 112.982 1.06667 114.129 2C115.289 2.92 115.869 4.32 115.869 6.2C115.869 7.04 115.755 7.88 115.529 8.72C115.315 9.54667 114.975 10.34 114.509 11.1C114.055 11.86 113.482 12.5333 112.789 13.12C112.109 13.7067 111.302 14.1667 110.369 14.5C109.449 14.8333 108.409 15 107.249 15H103.969L104.569 11.92H107.349C107.989 11.92 108.562 11.82 109.069 11.62C109.589 11.4067 110.042 11.12 110.429 10.76C110.829 10.4 111.162 9.98667 111.429 9.52C111.709 9.04 111.915 8.53333 112.049 8C112.182 7.46667 112.249 6.92667 112.249 6.38C112.249 5.44667 111.995 4.76667 111.489 4.34C110.982 3.9 110.155 3.68 109.009 3.68H106.169L106.769 0.599999ZM101.509 15L104.309 0.599999H107.849L105.049 15H101.509Z" fill="#28536B"/>
</svg>
